{
  "accessors": [
    {
      "bufferView": 2,
      "componentType": 5126,
      "count": 65532,
      "max": [
        10.640998840332031,
        14.635116577148438,
        24.50726318359375
      ],
      "min": [
        -10.640998840332031,
        0.3815922737121582,
        -24.324752807617188
      ],
      "type": "VEC3"
    },
    {
      "bufferView": 2,
      "byteOffset": 786384,
      "componentType": 5126,
      "count": 65532,
      "max": [
        1.0,
        1.0,
        1.0
      ],
      "min": [
        -1.0,
        -1.0,
        -1.0
      ],
      "type": "VEC3"
    },
    {
      "bufferView": 3,
      "componentType": 5126,
      "count": 65532,
      "max": [
        1.0,
        1.0,
        1.0,
        1.0
      ],
      "min": [
        -1.0,
        -1.0,
        -1.0,
        -1.0
      ],
      "type": "VEC4"
    },
    {
      "bufferView": 1,
      "componentType": 5126,
      "count": 65532,
      "max": [
        0.9996016025543213,
        0.7771705985069275
      ],
      "min": [
        0.0003800793783739209,
        0.00039839744567871094
      ],
      "type": "VEC2"
    },
    {
      "bufferView": 1,
      "byteOffset": 524256,
      "componentType": 5126,
      "count": 65532,
      "max": [
        0.9996016025543213,
        0.7771705985069275
      ],
      "min": [
        0.0003800793783739209,
        0.00039839744567871094
      ],
      "type": "VEC2"
    },
    {
      "bufferView": 1,
      "byteOffset": 1048512,
      "componentType": 5126,
      "count": 65532,
      "max": [
        0.9996016025543213,
        0.7771705985069275
      ],
      "min": [
        0.0003800793783739209,
        0.00039839744567871094
      ],
      "type": "VEC2"
    },
    {
      "bufferView": 1,
      "byteOffset": 1572768,
      "componentType": 5126,
      "count": 65532,
      "max": [
        0.9996016025543213,
        0.7771705985069275
      ],
      "min": [
        0.0003800793783739209,
        0.00039839744567871094
      ],
      "type": "VEC2"
    },
    {
      "bufferView": 1,
      "byteOffset": 2097024,
      "componentType": 5126,
      "count": 65532,
      "max": [
        0.9996016025543213,
        0.7771705985069275
      ],
      "min": [
        0.0003800793783739209,
        0.00039839744567871094
      ],
      "type": "VEC2"
    },
    {
      "bufferView": 0,
      "componentType": 5125,
      "count": 220839,
      "type": "SCALAR"
    },
    {
      "bufferView": 2,
      "byteOffset": 1572768,
      "componentType": 5126,
      "count": 35920,
      "max": [
        10.624763488769531,
        14.44964599609375,
        24.195892333984375
      ],
      "min": [
        -10.624763488769531,
        -0.01357898861169815,
        -23.90875244140625
      ],
      "type": "VEC3"
    },
    {
      "bufferView": 2,
      "byteOffset": 2003808,
      "componentType": 5126,
      "count": 35920,
      "max": [
        1.0,
        0.9999995231628418,
        0.9999998807907104
      ],
      "min": [
        -1.0,
        -0.9999964237213135,
        -1.0
      ],
      "type": "VEC3"
    },
    {
      "bufferView": 3,
      "byteOffset": 1048512,
      "componentType": 5126,
      "count": 35920,
      "max": [
        1.0,
        1.0,
        1.0,
        1.0
      ],
      "min": [
        -1.0,
        -0.9999473094940186,
        -1.0,
        -1.0
      ],
      "type": "VEC4"
    },
    {
      "bufferView": 1,
      "byteOffset": 2621280,
      "componentType": 5126,
      "count": 35920,
      "max": [
        0.9999001026153564,
        0.9996494054794312
      ],
      "min": [
        0.0003800793783739209,
        0.20039844512939453
      ],
      "type": "VEC2"
    },
    {
      "bufferView": 1,
      "byteOffset": 2908640,
      "componentType": 5126,
      "count": 35920,
      "max": [
        0.9999001026153564,
        0.9996494054794312
      ],
      "min": [
        0.0003800793783739209,
        0.20039844512939453
      ],
      "type": "VEC2"
    },
    {
      "bufferView": 1,
      "byteOffset": 3196000,
      "componentType": 5126,
      "count": 35920,
      "max": [
        0.9999001026153564,
        0.9996494054794312
      ],
      "min": [
        0.0003800793783739209,
        0.20039844512939453
      ],
      "type": "VEC2"
    },
    {
      "bufferView": 1,
      "byteOffset": 3483360,
      "componentType": 5126,
      "count": 35920,
      "max": [
        0.9999001026153564,
        0.9996494054794312
      ],
      "min": [
        0.0003800793783739209,
        0.20039844512939453
      ],
      "type": "VEC2"
    },
    {
      "bufferView": 1,
      "byteOffset": 3770720,
      "componentType": 5126,
      "count": 35920,
      "max": [
        0.9999001026153564,
        0.9996494054794312
      ],
      "min": [
        0.0003800793783739209,
        0.20039844512939453
      ],
      "type": "VEC2"
    },
    {
      "bufferView": 0,
      "byteOffset": 883356,
      "componentType": 5125,
      "count": 136719,
      "type": "SCALAR"
    },
    {
      "bufferView": 2,
      "byteOffset": 2434848,
      "componentType": 5126,
      "count": 152,
      "max": [
        3.67002010345459,
        4.526932716369629,
        24.411258697509766
      ],
      "min": [
        -3.257420063018799,
        3.0649824142456055,
        24.385318756103516
      ],
      "type": "VEC3"
    },
    {
      "bufferView": 2,
      "byteOffset": 2436672,
      "componentType": 5126,
      "count": 152,
      "max": [
        1.0,
        1.0,
        0.0
      ],
      "min": [
        -1.0,
        -1.0,
        -1.0
      ],
      "type": "VEC3"
    },
    {
      "bufferView": 1,
      "byteOffset": 4058080,
      "componentType": 5126,
      "count": 152,
      "max": [
        1.0,
        0.6890479922294617
      ],
      "min": [
        0.0,
        0.3267350196838379
      ],
      "type": "VEC2"
    },
    {
      "bufferView": 0,
      "byteOffset": 1430232,
      "componentType": 5125,
      "count": 696,
      "type": "SCALAR"
    },
    {
      "bufferView": 2,
      "byteOffset": 2438496,
      "componentType": 5126,
      "count": 6001,
      "max": [
        8.632575988769531,
        13.940040588378906,
        23.227493286132813
      ],
      "min": [
        -8.632575988769531,
        4.1240386962890625,
        -24.051483154296875
      ],
      "type": "VEC3"
    },
    {
      "bufferView": 2,
      "byteOffset": 2510508,
      "componentType": 5126,
      "count": 6001,
      "max": [
        0.9999018907546997,
        0.999876856803894,
        0.9998114705085754
      ],
      "min": [
        -0.9999018907546997,
        -0.9998489618301392,
        -0.9994960427284241
      ],
      "type": "VEC3"
    },
    {
      "bufferView": 3,
      "byteOffset": 1623232,
      "componentType": 5126,
      "count": 6001,
      "max": [
        0.9996493458747864,
        0.9999993443489075,
        0.9999999403953552,
        1.0
      ],
      "min": [
        -1.0,
        -0.9905170202255249,
        -0.9999999403953552,
        -1.0
      ],
      "type": "VEC4"
    },
    {
      "bufferView": 1,
      "byteOffset": 4059296,
      "componentType": 5126,
      "count": 6001,
      "max": [
        0.9995020031929016,
        0.8956255912780762
      ],
      "min": [
        0.0005000000819563866,
        0.250499963760376
      ],
      "type": "VEC2"
    },
    {
      "bufferView": 1,
      "byteOffset": 4107304,
      "componentType": 5126,
      "count": 6001,
      "max": [
        0.9995020031929016,
        0.8956255912780762
      ],
      "min": [
        0.0005000000819563866,
        0.250499963760376
      ],
      "type": "VEC2"
    },
    {
      "bufferView": 1,
      "byteOffset": 4155312,
      "componentType": 5126,
      "count": 6001,
      "max": [
        0.9995020031929016,
        0.8956255912780762
      ],
      "min": [
        0.0005000000819563866,
        0.250499963760376
      ],
      "type": "VEC2"
    },
    {
      "bufferView": 1,
      "byteOffset": 4203320,
      "componentType": 5126,
      "count": 6001,
      "max": [
        0.9995020031929016,
        0.8956255912780762
      ],
      "min": [
        0.0005000000819563866,
        0.250499963760376
      ],
      "type": "VEC2"
    },
    {
      "bufferView": 1,
      "byteOffset": 4251328,
      "componentType": 5126,
      "count": 6001,
      "max": [
        0.9995020031929016,
        0.8956255912780762
      ],
      "min": [
        0.0005000000819563866,
        0.250499963760376
      ],
      "type": "VEC2"
    },
    {
      "bufferView": 0,
      "byteOffset": 1433016,
      "componentType": 5125,
      "count": 30144,
      "type": "SCALAR"
    },
    {
      "bufferView": 2,
      "byteOffset": 2582520,
      "componentType": 5126,
      "count": 9366,
      "max": [
        8.571540832519531,
        11.812767028808594,
        22.09405517578125
      ],
      "min": [
        -8.571540832519531,
        6.653633117675781,
        -23.809524536132813
      ],
      "type": "VEC3"
    },
    {
      "bufferView": 2,
      "byteOffset": 2694912,
      "componentType": 5126,
      "count": 9366,
      "max": [
        1.0,
        1.0,
        0.9999991655349731
      ],
      "min": [
        -1.0,
        -1.0,
        -0.9999992847442627
      ],
      "type": "VEC3"
    },
    {
      "bufferView": 3,
      "byteOffset": 1719248,
      "componentType": 5126,
      "count": 9366,
      "max": [
        0.9991095066070557,
        1.0,
        0.9999995827674866,
        1.0
      ],
      "min": [
        -1.0,
        -0.9999993443489075,
        -0.9999998211860657,
        -1.0
      ],
      "type": "VEC4"
    },
    {
      "bufferView": 1,
      "byteOffset": 4299336,
      "componentType": 5126,
      "count": 9366,
      "max": [
        0.998474657535553,
        0.9995020031929016
      ],
      "min": [
        0.0004980098456144333,
        0.2504979968070984
      ],
      "type": "VEC2"
    },
    {
      "bufferView": 1,
      "byteOffset": 4374264,
      "componentType": 5126,
      "count": 9366,
      "max": [
        0.998474657535553,
        0.9995020031929016
      ],
      "min": [
        0.0004980098456144333,
        0.2504979968070984
      ],
      "type": "VEC2"
    },
    {
      "bufferView": 1,
      "byteOffset": 4449192,
      "componentType": 5126,
      "count": 9366,
      "max": [
        0.998474657535553,
        0.9995020031929016
      ],
      "min": [
        0.0004980098456144333,
        0.2504979968070984
      ],
      "type": "VEC2"
    },
    {
      "bufferView": 1,
      "byteOffset": 4524120,
      "componentType": 5126,
      "count": 9366,
      "max": [
        0.998474657535553,
        0.9995020031929016
      ],
      "min": [
        0.0004980098456144333,
        0.2504979968070984
      ],
      "type": "VEC2"
    },
    {
      "bufferView": 1,
      "byteOffset": 4599048,
      "componentType": 5126,
      "count": 9366,
      "max": [
        0.998474657535553,
        0.9995020031929016
      ],
      "min": [
        0.0004980098456144333,
        0.2504979968070984
      ],
      "type": "VEC2"
    },
    {
      "bufferView": 0,
      "byteOffset": 1553592,
      "componentType": 5125,
      "count": 36018,
      "type": "SCALAR"
    },
    {
      "bufferView": 2,
      "byteOffset": 2807304,
      "componentType": 5126,
      "count": 24028,
      "max": [
        10.692596435546875,
        14.705245971679688,
        24.54241943359375
      ],
      "min": [
        -10.692596435546875,
        1.7500934600830078,
        -24.337570190429688
      ],
      "type": "VEC3"
    },
    {
      "bufferView": 2,
      "byteOffset": 3095640,
      "componentType": 5126,
      "count": 24028,
      "max": [
        1.0,
        0.9999990463256836,
        0.9999924898147583
      ],
      "min": [
        -1.0,
        -0.9999630451202393,
        -0.9999971389770508
      ],
      "type": "VEC3"
    },
    {
      "bufferView": 1,
      "byteOffset": 4673976,
      "componentType": 5126,
      "count": 24028,
      "max": [
        0.9924275875091553,
        0.9980079531669617
      ],
      "min": [
        0.001980900764465332,
        0.0019919872283935547
      ],
      "type": "VEC2"
    },
    {
      "bufferView": 0,
      "byteOffset": 1697664,
      "componentType": 5125,
      "count": 105357,
      "type": "SCALAR"
    }
  ],
  "asset": {
    "extras": {
      "author": "ItsDiyor (https://sketchfab.com/ItsDiyor)",
      "license": "CC-BY-4.0 (http://creativecommons.org/licenses/by/4.0/)",
      "source": "https://sketchfab.com/3d-models/toyota-camry-2020-236a5a6e2fa6420fbdf641f4800cd544",
      "title": "Toyota Camry 2020"
    },
    "generator": "Sketchfab-16.75.0",
    "version": "2.0"
  },
  "bufferViews": [
    {
      "buffer": 0,
      "byteLength": 2119092,
      "name": "floatBufferViews",
      "target": 34963
    },
    {
      "buffer": 0,
      "byteLength": 4866200,
      "byteOffset": 2119092,
      "byteStride": 8,
      "name": "floatBufferViews",
      "target": 34962
    },
    {
      "buffer": 0,
      "byteLength": 3383976,
      "byteOffset": 6985292,
      "byteStride": 12,
      "name": "floatBufferViews",
      "target": 34962
    },
    {
      "buffer": 0,
      "byteLength": 1869104,
      "byteOffset": 10369268,
      "byteStride": 16,
      "name": "floatBufferViews",
      "target": 34962
    }
  ],
  "buffers": [
    {
      "byteLength": 12238372,
      "uri": "scene.bin"
    }
  ],
  "extensionsUsed": [
    "KHR_materials_specular"
  ],
  "images": [
    {
      "uri": "textures/Index_0_1_baseColor.png"
    },
    {
      "uri": "textures/Index_0_1_metallicRoughness.png"
    },
    {
      "uri": "textures/Index_0_1_normal.jpeg"
    },
    {
      "uri": "textures/metal_white_baseColor.png"
    },
    {
      "uri": "textures/Index_0_2_baseColor.png"
    },
    {
      "uri": "textures/Index_0_2_metallicRoughness.png"
    },
    {
      "uri": "textures/Index_0_2_normal.jpeg"
    },
    {
      "uri": "textures/Paint_Color_metallicRoughness.png"
    }
  ],
  "materials": [
    {
      "name": "Index_0_1",
      "normalTexture": {
        "index": 2,
        "texCoord": 2
      },
      "occlusionTexture": {
        "index": 1,
        "texCoord": 3
      },
      "pbrMetallicRoughness": {
        "baseColorTexture": {
          "index": 0
        },
        "metallicRoughnessTexture": {
          "index": 1,
          "texCoord": 1
        }
      }
    },
    {
      "doubleSided": true,
      "name": "metal_white",
      "pbrMetallicRoughness": {
        "baseColorTexture": {
          "index": 3
        },
        "metallicFactor": 0.259843,
        "roughnessFactor": 0.0
      }
    },
    {
      "alphaMode": "BLEND",
      "name": "Index_0_2",
      "normalTexture": {
        "index": 6
      },
      "occlusionTexture": {
        "index": 5
      },
      "pbrMetallicRoughness": {
        "baseColorTexture": {
          "index": 4
        },
        "metallicRoughnessTexture": {
          "index": 5
        }
      }
    },
    {
      "alphaMode": "BLEND",
      "name": "Index_0_2_SS",
      "normalTexture": {
        "index": 6
      },
      "occlusionTexture": {
        "index": 5
      },
      "pbrMetallicRoughness": {
        "baseColorTexture": {
          "index": 4
        },
        "metallicRoughnessTexture": {
          "index": 5
        }
      }
    },
    {
      "extensions": {
        "KHR_materials_specular": {
          "specularColorFactor": [
            1.0,
            1.0,
            1.0
          ],
          "specularFactor": 1.0
        }
      },
      "name": "Paint_Color",
      "occlusionTexture": {
        "index": 7
      },
      "pbrMetallicRoughness": {
        "metallicRoughnessTexture": {
          "index": 7
        },
        "roughnessFactor": 0.22
      }
    }
  ],
  "meshes": [
    {
      "name": "Object_0",
      "primitives": [
        {
          "attributes": {
            "NORMAL": 1,
            "POSITION": 0,
            "TANGENT": 2,
            "TEXCOORD_0": 3,
            "TEXCOORD_1": 4,
            "TEXCOORD_2": 5,
            "TEXCOORD_3": 6,
            "TEXCOORD_4": 7
          },
          "indices": 8,
          "material": 0,
          "mode": 4
        }
      ]
    },
    {
      "name": "Object_1",
      "primitives": [
        {
          "attributes": {
            "NORMAL": 10,
            "POSITION": 9,
            "TANGENT": 11,
            "TEXCOORD_0": 12,
            "TEXCOORD_1": 13,
            "TEXCOORD_2": 14,
            "TEXCOORD_3": 15,
            "TEXCOORD_4": 16
          },
          "indices": 17,
          "material": 0,
          "mode": 4
        }
      ]
    },
    {
      "name": "Object_2",
      "primitives": [
        {
          "attributes": {
            "NORMAL": 19,
            "POSITION": 18,
            "TEXCOORD_0": 20
          },
          "indices": 21,
          "material": 1,
          "mode": 4
        }
      ]
    },
    {
      "name": "Object_3",
      "primitives": [
        {
          "attributes": {
            "NORMAL": 23,
            "POSITION": 22,
            "TANGENT": 24,
            "TEXCOORD_0": 25,
            "TEXCOORD_1": 26,
            "TEXCOORD_2": 27,
            "TEXCOORD_3": 28,
            "TEXCOORD_4": 29
          },
          "indices": 30,
          "material": 2,
          "mode": 4
        }
      ]
    },
    {
      "name": "Object_4",
      "primitives": [
        {
          "attributes": {
            "NORMAL": 32,
            "POSITION": 31,
            "TANGENT": 33,
            "TEXCOORD_0": 34,
            "TEXCOORD_1": 35,
            "TEXCOORD_2": 36,
            "TEXCOORD_3": 37,
            "TEXCOORD_4": 38
          },
          "indices": 39,
          "material": 3,
          "mode": 4
        }
      ]
    },
    {
      "name": "Object_5",
      "primitives": [
        {
          "attributes": {
            "NORMAL": 41,
            "POSITION": 40,
            "TEXCOORD_0": 42
          },
          "indices": 43,
          "material": 4,
          "mode": 4
        }
      ]
    }
  ],
  "nodes": [
    {
      "children": [
        1
      ],
      "matrix": [
        1.0,
        0.0,
        0.0,
        0.0,
        0.0,
        2.220446049250313e-16,
        -1.0,
        0.0,
        0.0,
        1.0,
        2.220446049250313e-16,
        0.0,
        0.0,
        0.0,
        0.0,
        1.0
      ],
      "name": "Sketchfab_model"
    },
    {
      "children": [
        2
      ],
      "name": "root"
    },
    {
      "children": [
        3
      ],
      "matrix": [
        1.0,
        0.0,
        0.0,
        0.0,
        0.0,
        2.220446049250313e-16,
        1.0,
        0.0,
        0.0,
        -1.0,
        2.220446049250313e-16,
        0.0,
        0.0,
        0.0,
        0.0,
        1.0
      ],
      "name": "GLTF_SceneRootNode"
    },
    {
      "children": [
        4,
        8,
        10,
        12
      ],
      "matrix": [
        0.10000000149011612,
        0.0,
        0.0,
        0.0,
        0.0,
        0.10000000149011612,
        0.0,
        0.0,
        0.0,
        0.0,
        0.10000000149011612,
        0.0,
        0.0,
        0.0,
        0.0,
        1.0
      ],
      "name": "Index_Out_4"
    },
    {
      "children": [
        5,
        6,
        7
      ],
      "name": "Index_0_1_BD_0"
    },
    {
      "mesh": 0,
      "name": "Object_5"
    },
    {
      "mesh": 1,
      "name": "Object_6"
    },
    {
      "mesh": 2,
      "name": "Object_7"
    },
    {
      "children": [
        9
      ],
      "name": "Index_0_2_BD_1"
    },
    {
      "mesh": 3,
      "name": "Object_9"
    },
    {
      "children": [
        11
      ],
      "name": "Index_0_2_SS_BD_2"
    },
    {
      "mesh": 4,
      "name": "Object_11"
    },
    {
      "children": [
        13
      ],
      "name": "Paint_Color_BD_3"
    },
    {
      "mesh": 5,
      "name": "Object_13"
    }
  ],
  "samplers": [
    {
      "magFilter": 9729,
      "minFilter": 9987,
      "wrapS": 10497,
      "wrapT": 10497
    }
  ],
  "scene": 0,
  "scenes": [
    {
      "name": "Sketchfab_Scene",
      "nodes": [
        0
      ]
    }
  ],
  "textures": [
    {
      "sampler": 0,
      "source": 0
    },
    {
      "sampler": 0,
      "source": 1
    },
    {
      "sampler": 0,
      "source": 2
    },
    {
      "sampler": 0,
      "source": 3
    },
    {
      "sampler": 0,
      "source": 4
    },
    {
      "sampler": 0,
      "source": 5
    },
    {
      "sampler": 0,
      "source": 6
    },
    {
      "sampler": 0,
      "source": 7
    }
  ]
}
